<svg width="220" height="50" viewBox="0 0 220 50" fill="none" xmlns="http://www.w3.org/2000/svg">
<g clip-path="url(#clip0_15579_4018)">
<rect width="220" height="50" rx="4" fill="#1C69D4"/>
<rect x="56" y="17" width="22" height="3" rx="0.7" fill="white"/>
<rect x="56" y="29" width="13" height="3" rx="0.7" fill="white"/>
<rect x="56" y="23" width="22" height="3" rx="0.7" fill="white"/>
<path d="M96.344 30.1H98.808V26.676L100.104 25.332L103.576 30.1H106.536L101.768 23.652L106.328 18.9H103.352L98.808 23.796V18.9H96.344V30.1ZM110.208 30.26C111.391 30.26 112.208 29.828 112.8 29.172V30.1H115.152V25.124C115.152 23.972 114.864 23.028 114.224 22.388C113.616 21.78 112.656 21.428 111.328 21.428C109.872 21.428 108.944 21.7 108 22.116L108.608 23.972C109.392 23.684 110.048 23.508 110.976 23.508C112.192 23.508 112.816 24.068 112.816 25.076V25.22C112.208 25.012 111.584 24.868 110.72 24.868C108.688 24.868 107.264 25.732 107.264 27.604C107.264 29.332 108.592 30.26 110.208 30.26ZM110.944 28.58C110.16 28.58 109.616 28.196 109.616 27.54C109.616 26.74 110.256 26.324 111.296 26.324C111.888 26.324 112.432 26.452 112.848 26.644V27.076C112.848 27.956 112.08 28.58 110.944 28.58ZM123.948 21.524H116.396V23.604H118.94V30.1H121.404V23.604H123.948V21.524ZM127.708 30.26C128.891 30.26 129.708 29.828 130.3 29.172V30.1H132.652V25.124C132.652 23.972 132.364 23.028 131.724 22.388C131.116 21.78 130.156 21.428 128.828 21.428C127.372 21.428 126.444 21.7 125.5 22.116L126.108 23.972C126.892 23.684 127.548 23.508 128.476 23.508C129.692 23.508 130.316 24.068 130.316 25.076V25.22C129.708 25.012 129.084 24.868 128.22 24.868C126.188 24.868 124.764 25.732 124.764 27.604C124.764 29.332 126.092 30.26 127.708 30.26ZM128.444 28.58C127.66 28.58 127.116 28.196 127.116 27.54C127.116 26.74 127.756 26.324 128.796 26.324C129.388 26.324 129.932 26.452 130.348 26.644V27.076C130.348 27.956 129.58 28.58 128.444 28.58ZM135.768 21.524C135.768 27.604 135.288 28.132 134.376 28.132C134.264 28.132 133.96 28.1 133.864 28.084L133.704 30.052C134.024 30.132 134.616 30.196 134.936 30.196C137.08 30.196 138.056 29.284 138.056 23.604H140.232V30.1H142.664V21.524H135.768ZM149.046 30.292C151.718 30.292 153.702 28.292 153.702 25.828C153.702 23.332 151.734 21.364 149.078 21.364C146.406 21.364 144.422 23.364 144.422 25.828C144.422 28.324 146.39 30.292 149.046 30.292ZM149.078 28.196C147.734 28.196 146.822 27.092 146.822 25.828C146.822 24.532 147.654 23.46 149.046 23.46C150.39 23.46 151.302 24.564 151.302 25.828C151.302 27.124 150.47 28.196 149.078 28.196ZM161.719 23.604V21.524H155.463V30.1H157.895V23.604H161.719Z" fill="white"/>
</g>
<defs>
<clipPath id="clip0_15579_4018">
<rect width="220" height="50" fill="white"/>
</clipPath>
</defs>
</svg>
